TITLE ""
FILE "1Q_t_0220-0228.mp3" MP3
  TRACK 01 AUDIO
    TITLE "1Q_t_0220-0228_01"
    INDEX 01 00:00:00
  TRACK 02 AUDIO
    TITLE "1Q_t_0220-0228_02"
    INDEX 01 00:01:22
  TRACK 03 AUDIO
    TITLE "1Q_t_0220-0228_03"
    INDEX 01 00:01:35
  TRACK 04 AUDIO
    TITLE "1Q_t_0220-0228_04"
    INDEX 01 00:02:66
  TRACK 05 AUDIO
    TITLE "1Q_t_0220-0228_05"
    INDEX 01 00:03:07
  TRACK 06 AUDIO
    TITLE "1Q_t_0220-0228_06"
    INDEX 01 00:07:71
  TRACK 07 AUDIO
    TITLE "1Q_t_0220-0228_07"
    INDEX 01 00:08:47
  TRACK 08 AUDIO
    TITLE "1Q_t_0220-0228_08"
    INDEX 01 00:09:60
  TRACK 09 AUDIO
    TITLE "1Q_t_0220-0228_09"
    INDEX 01 00:10:01
  TRACK 10 AUDIO
    TITLE "1Q_t_0220-0228_10"
    INDEX 01 00:13:52
  TRACK 11 AUDIO
    TITLE "1Q_t_0220-0228_11"
    INDEX 01 00:13:68
  TRACK 12 AUDIO
    TITLE "1Q_t_0220-0228_12"
    INDEX 01 00:19:17
  TRACK 13 AUDIO
    TITLE "1Q_t_0220-0228_13"
    INDEX 01 00:19:72
  TRACK 14 AUDIO
    TITLE "1Q_t_0220-0228_14"
    INDEX 01 00:21:05
  TRACK 15 AUDIO
    TITLE "1Q_t_0220-0228_15"
    INDEX 01 00:21:20
  TRACK 16 AUDIO
    TITLE "1Q_t_0220-0228_16"
    INDEX 01 00:25:06
  TRACK 17 AUDIO
    TITLE "1Q_t_0220-0228_17"
    INDEX 01 00:25:20
  TRACK 18 AUDIO
    TITLE "1Q_t_0220-0228_18"
    INDEX 01 00:30:29
  TRACK 19 AUDIO
    TITLE "1Q_t_0220-0228_19"
    INDEX 01 00:31:07
  TRACK 20 AUDIO
    TITLE "1Q_t_0220-0228_20"
    INDEX 01 00:32:12
  TRACK 21 AUDIO
    TITLE "1Q_t_0220-0228_21"
    INDEX 01 00:32:63
  TRACK 22 AUDIO
    TITLE "1Q_t_0220-0228_22"
    INDEX 01 00:34:03
  TRACK 23 AUDIO
    TITLE "1Q_t_0220-0228_23"
    INDEX 01 00:34:19
  TRACK 24 AUDIO
    TITLE "1Q_t_0220-0228_24"
    INDEX 01 00:35:20
  TRACK 25 AUDIO
    TITLE "1Q_t_0220-0228_25"
    INDEX 01 00:35:34
  TRACK 26 AUDIO
    TITLE "1Q_t_0220-0228_26"
    INDEX 01 00:42:62
  TRACK 27 AUDIO
    TITLE "1Q_t_0220-0228_27"
    INDEX 01 00:43:40
  TRACK 28 AUDIO
    TITLE "1Q_t_0220-0228_28"
    INDEX 01 00:44:47
  TRACK 29 AUDIO
    TITLE "1Q_t_0220-0228_29"
    INDEX 01 00:44:64
  TRACK 30 AUDIO
    TITLE "1Q_t_0220-0228_30"
    INDEX 01 00:46:50
  TRACK 31 AUDIO
    TITLE "1Q_t_0220-0228_31"
    INDEX 01 00:46:65
  TRACK 32 AUDIO
    TITLE "1Q_t_0220-0228_32"
    INDEX 01 00:53:07
  TRACK 33 AUDIO
    TITLE "1Q_t_0220-0228_33"
    INDEX 01 00:53:59
  TRACK 34 AUDIO
    TITLE "1Q_t_0220-0228_34"
    INDEX 01 00:55:03
  TRACK 35 AUDIO
    TITLE "1Q_t_0220-0228_35"
    INDEX 01 00:55:21
  TRACK 36 AUDIO
    TITLE "1Q_t_0220-0228_36"
    INDEX 01 00:56:28
  TRACK 37 AUDIO
    TITLE "1Q_t_0220-0228_37"
    INDEX 01 00:56:40
  TRACK 38 AUDIO
    TITLE "1Q_t_0220-0228_38"
    INDEX 01 01:02:17
  TRACK 39 AUDIO
    TITLE "1Q_t_0220-0228_39"
    INDEX 01 01:02:70
  TRACK 40 AUDIO
    TITLE "1Q_t_0220-0228_40"
    INDEX 01 01:03:70
  TRACK 41 AUDIO
    TITLE "1Q_t_0220-0228_41"
    INDEX 01 01:04:10
  TRACK 42 AUDIO
    TITLE "1Q_t_0220-0228_42"
    INDEX 01 01:07:22
  TRACK 43 AUDIO
    TITLE "1Q_t_0220-0228_43"
    INDEX 01 01:07:36
  TRACK 44 AUDIO
    TITLE "1Q_t_0220-0228_44"
    INDEX 01 01:13:09
  TRACK 45 AUDIO
    TITLE "1Q_t_0220-0228_45"
    INDEX 01 01:13:66
  TRACK 46 AUDIO
    TITLE "1Q_t_0220-0228_46"
    INDEX 01 01:14:73
  TRACK 47 AUDIO
    TITLE "1Q_t_0220-0228_47"
    INDEX 01 01:15:16
  TRACK 48 AUDIO
    TITLE "1Q_t_0220-0228_48"
    INDEX 01 01:17:31
  TRACK 49 AUDIO
    TITLE "1Q_t_0220-0228_49"
    INDEX 01 01:17:46
  TRACK 50 AUDIO
    TITLE "1Q_t_0220-0228_50"
    INDEX 01 01:22:75
  TRACK 51 AUDIO
    TITLE "1Q_t_0220-0228_51"
    INDEX 01 01:23:53
  TRACK 52 AUDIO
    TITLE "1Q_t_0220-0228_52"
    INDEX 01 01:24:62
  TRACK 53 AUDIO
    TITLE "1Q_t_0220-0228_53"
    INDEX 01 01:25:01
  TRACK 54 AUDIO
    TITLE "1Q_t_0220-0228_54"
    INDEX 01 01:26:31
  TRACK 55 AUDIO
    TITLE "1Q_t_0220-0228_55"
    INDEX 01 01:26:47
  TRACK 56 AUDIO
    TITLE "1Q_t_0220-0228_56"
    INDEX 01 01:31:31
